<svg xmlns="http://www.w3.org/2000/svg" viewBox="0 0 16 16" fill="none">
  <path fill="#CFC6FF" d="M8 .198a8 8 0 00-2.529 15.59c.4.074.546-.174.546-.386 0-.19-.007-.693-.01-1.36-2.225.483-2.695-1.073-2.695-1.073-.364-.925-.89-1.172-.89-1.172-.727-.497.055-.487.055-.487.803.057 1.226.825 1.226.825.714 1.223 1.873.87 2.33.665.073-.517.28-.87.508-1.07-1.777-.202-3.644-.888-3.644-3.955 0-.874.312-1.589.824-2.15-.083-.203-.357-1.018.078-2.122 0 0 .672-.215 2.2.82A7.64 7.64 0 018 4.58c.68.003 1.366.092 2.006.269 1.527-1.035 2.197-.82 2.197-.82.437 1.104.163 1.919.08 2.122.513.561.823 1.276.823 2.15 0 3.075-1.87 3.75-3.652 3.947.288.248.544.737.544 1.486 0 1.073-.01 1.937-.01 2.2 0 .214.144.463.55.384A8.001 8.001 0 008 .198z"/>
</svg>