<svg xmlns="http://www.w3.org/2000/svg" viewBox="0 0 24 24" fill="currentColor">
  <path d="M3.135 1.337C2.08 1.96.02 4.328 0 4.95v1.03c0 1.303 1.22 2.45 2.325 2.45 1.33 0 2.436-1.102 2.436-2.404 0 1.302 1.07 2.404 2.4 2.404 1.328 0 2.362-1.102 2.362-2.404 0 1.302 1.107 2.404 2.434 2.404h.044c1.327 0 2.434-1.102 2.434-2.404 0 1.302 1.035 2.404 2.363 2.404 1.33 0 2.4-1.102 2.4-2.404 0 1.302 1.106 2.404 2.435 2.404C22.78 8.43 24 7.283 24 5.98V4.95c-.02-.622-2.082-2.99-3.13-3.613C19.753.91 13.72.75 12 .75c-1.72 0-7.753.16-8.865.587zm5.39 8.923c-.458.01-.95.07-1.42.2-1.15.317-2.24.986-2.24 2.24v.01l-.01 6.72c.01.646.493 1.146 1.14 1.146h11.97c.67 0 1.152-.5 1.152-1.146v-6.73c0-1.366-1.24-2.123-2.52-2.35-.48-.086-.98-.12-1.46-.12H8.525zm-.187 2.455h7.32c.58 0 1.058.35 1.058.868v4.84H7.283v-4.84c0-.52.477-.868 1.056-.868z"/>
</svg>
